<svg width="199" height="40" viewBox="0 0 199 40" fill="none" xmlns="http://www.w3.org/2000/svg">
<mask id="mask0" mask-type="alpha" maskUnits="userSpaceOnUse" x="0" y="0" width="38" height="40">
<path fill-rule="evenodd" clip-rule="evenodd" d="M37.9018 0.0925293V39.9117H0.202698V0.0925293L37.9018 0.0925293Z" fill="white"/>
</mask>
<g mask="url(#mask0)">
<path fill-rule="evenodd" clip-rule="evenodd" d="M19.3811 6.05823C17.4115 6.05823 15.798 4.51925 15.7043 2.59329C11.8328 3.52507 8.73025 5.82195 7.15912 9.00958C6.41908 10.858 5.9738 12.7732 5.82777 14.7402C5.67904 16.7607 5.86112 18.7999 6.35508 20.765C6.38483 18.3817 7.12577 15.5275 9.44234 12.6609C11.3362 10.3176 14.3468 8.73763 18.1678 8.21602V8.21512C18.1678 8.21512 18.1624 8.21245 18.1903 8.20888C19.0484 8.08851 19.9219 8.0261 20.8278 8.0261C24.4991 8.0261 28.1209 9.01582 31.3118 10.8865C33.97 12.4442 36.2514 14.6002 38.0371 17.2136C37.8884 16.5556 37.6856 15.8235 37.4133 15.0451C36.448 12.2846 34.3594 8.35155 29.8958 5.29498C27.8514 3.8951 25.5015 2.92677 23.0614 2.45776C23.0398 4.44614 21.3975 6.05823 19.3811 6.05823Z" fill="#9FC48F"/>
<path fill-rule="evenodd" clip-rule="evenodd" d="M19.381 4.74222C20.6772 4.74222 21.7319 3.69899 21.7319 2.41681C21.7319 1.13462 20.6772 0.0922852 19.381 0.0922852C18.0848 0.0922852 17.0302 1.13462 17.0302 2.41681C17.0302 3.69899 18.0848 4.74222 19.381 4.74222Z" fill="#9FC48F"/>
<path fill-rule="evenodd" clip-rule="evenodd" d="M6.18273 28.5274C6.67399 29.37 6.80468 30.3508 6.5505 31.2906C6.31703 32.1502 5.78702 32.8804 5.04518 33.3709C7.60602 35.9611 10.7879 37.3815 14.0555 37.3815C14.7766 37.3815 15.504 37.311 16.2197 37.1719C19.6882 36.4979 22.7439 34.917 25.3291 32.464C23.7219 33.3129 21.7073 33.9406 19.2646 33.9406C18.511 33.9406 17.7304 33.88 16.9444 33.7623C14.7919 33.4386 12.6412 32.3704 10.7248 30.6736C8.84273 29.008 7.2671 26.8074 6.1683 24.3117C4.83425 21.2819 4.25736 17.9391 4.50164 14.6445C4.69724 11.9883 5.40483 9.42213 6.61089 6.98169C6.11242 7.43554 5.57609 7.97053 5.03526 8.58754C3.10088 10.7953 0.702283 14.55 0.257899 19.9025C0.0523819 22.376 0.365164 24.8155 1.18813 27.1525C1.19084 27.1588 1.19354 27.1659 1.19534 27.173C1.74519 26.8681 2.36444 26.7067 2.99181 26.7067C4.30423 26.7067 5.52742 27.404 6.18273 28.5274Z" fill="#7FB069"/>
<path fill-rule="evenodd" clip-rule="evenodd" d="M4.17018 32.3616C4.71372 32.0513 5.10312 31.5493 5.26537 30.9501C5.42762 30.3501 5.34469 29.7232 5.03101 29.1856C4.61186 28.4678 3.83036 28.022 2.99207 28.022C2.58284 28.022 2.17721 28.1299 1.81936 28.334C0.697131 28.9751 0.311336 30.4 0.959435 31.5101C1.37768 32.2279 2.15918 32.6737 2.99748 32.6737C3.40761 32.6737 3.81323 32.5658 4.17018 32.3616Z" fill="#7FB069"/>
<path fill-rule="evenodd" clip-rule="evenodd" d="M32.0855 31.3623C31.8313 30.4225 31.962 29.4417 32.4532 28.5991C33.1085 27.4756 34.3317 26.7784 35.6442 26.7784C36.1417 26.7784 36.6339 26.8809 37.0909 27.0744C37.1621 26.8122 37.2288 26.5483 37.2874 26.2817C38.1635 22.264 37.3532 18.429 35.0619 15.7594C32.401 12.6582 29.1965 11.0355 26.2886 10.208C28.3573 11.467 30.3638 13.4964 31.6555 16.7625C33.1743 20.6055 32.2378 25.7182 29.2109 30.1051C27.4118 32.7123 24.9825 34.9039 22.1855 36.4438C19.4877 37.9293 16.532 38.7879 13.3817 39.0037C14.923 39.4799 16.9764 39.9114 19.3479 39.9114C22.2693 39.9114 25.1349 39.2641 27.8652 37.9872C30.1349 36.9253 32.1206 35.3827 33.699 33.5121C32.9012 33.0226 32.3297 32.2638 32.0855 31.3623Z" fill="#BFD7B4"/>
<path fill-rule="evenodd" clip-rule="evenodd" d="M36.8164 28.4063C36.4594 28.2021 36.0538 28.0942 35.6437 28.0942C34.8054 28.0942 34.0239 28.5401 33.6056 29.2569C33.292 29.7955 33.2081 30.4214 33.3704 31.0215C33.5335 31.6216 33.922 32.1227 34.4656 32.4339C34.8234 32.6372 35.229 32.7451 35.6383 32.7451C36.4766 32.7451 37.2581 32.3001 37.6763 31.5824C38.3244 30.4723 37.9386 29.0474 36.8164 28.4063Z" fill="#BFD7B4"/>
</g>
<path d="M51.104 14.296C51.2 14.2853 51.296 14.2747 51.392 14.264C51.4773 14.2533 51.5573 14.2427 51.632 14.232C51.7173 14.2213 51.7973 14.216 51.872 14.216C52.0213 14.216 52.176 14.232 52.336 14.264C52.5067 14.296 52.6613 14.3547 52.8 14.44C52.9493 14.5253 53.072 14.6533 53.168 14.824C53.264 14.984 53.312 15.1973 53.312 15.464V23.224H56.432C56.688 23.224 56.9013 23.256 57.072 23.32C57.2427 23.384 57.376 23.4693 57.472 23.576C57.568 23.6827 57.632 23.8053 57.664 23.944C57.7067 24.0827 57.728 24.2213 57.728 24.36C57.728 24.4667 57.7227 24.6 57.712 24.76C57.712 24.92 57.7067 25 57.696 25H51.104V14.296ZM65.8181 21.176C65.8181 21.7093 65.7488 22.2213 65.6101 22.712C65.4821 23.2027 65.2635 23.6347 64.9541 24.008C64.6555 24.3813 64.2661 24.68 63.7861 24.904C63.3061 25.128 62.7248 25.24 62.0421 25.24C61.3595 25.24 60.7781 25.1333 60.2981 24.92C59.8288 24.696 59.4448 24.4027 59.1461 24.04C58.8475 23.6667 58.6288 23.24 58.4901 22.76C58.3515 22.2693 58.2821 21.7573 58.2821 21.224C58.2821 20.68 58.3621 20.168 58.5221 19.688C58.6821 19.1973 58.9168 18.7707 59.2261 18.408C59.5461 18.0347 59.9461 17.7413 60.4261 17.528C60.9061 17.3147 61.4661 17.208 62.1061 17.208C62.7781 17.208 63.3488 17.3147 63.8181 17.528C64.2981 17.7413 64.6821 18.0293 64.9701 18.392C65.2688 18.7547 65.4821 19.176 65.6101 19.656C65.7488 20.136 65.8181 20.6427 65.8181 21.176ZM63.6261 21.192C63.6261 20.904 63.6048 20.6213 63.5621 20.344C63.5195 20.056 63.4395 19.8053 63.3221 19.592C63.2048 19.3787 63.0448 19.208 62.8421 19.08C62.6395 18.9413 62.3835 18.872 62.0741 18.872C61.7648 18.872 61.5035 18.9413 61.2901 19.08C61.0875 19.2187 60.9221 19.4 60.7941 19.624C60.6768 19.8373 60.5915 20.0827 60.5381 20.36C60.4848 20.6373 60.4581 20.92 60.4581 21.208C60.4581 21.496 60.4795 21.784 60.5221 22.072C60.5755 22.36 60.6608 22.6213 60.7781 22.856C60.8955 23.08 61.0555 23.2613 61.2581 23.4C61.4715 23.5387 61.7328 23.608 62.0421 23.608C62.3621 23.608 62.6235 23.5387 62.8261 23.4C63.0395 23.2613 63.2048 23.08 63.3221 22.856C63.4395 22.6213 63.5195 22.36 63.5621 22.072C63.6048 21.784 63.6261 21.4907 63.6261 21.192ZM67.6516 23.848C67.577 23.6347 67.529 23.4107 67.5076 23.176C67.4863 22.9413 67.4756 22.7067 67.4756 22.472V15.048C67.5503 15.0373 67.6303 15.0267 67.7156 15.016C67.7903 15.0053 67.8703 15 67.9556 15C68.041 14.9893 68.1263 14.984 68.2116 14.984C68.3823 14.984 68.553 15 68.7236 15.032C68.8943 15.064 69.049 15.128 69.1876 15.224C69.3263 15.32 69.4383 15.4533 69.5236 15.624C69.609 15.784 69.6516 15.9973 69.6516 16.264V17.384H71.8916V19.016H69.6516V22.44C69.6516 23.1867 69.9556 23.56 70.5636 23.56C70.713 23.56 70.8516 23.5387 70.9796 23.496C71.1183 23.4427 71.241 23.3893 71.3476 23.336C71.4543 23.272 71.545 23.208 71.6196 23.144C71.705 23.08 71.7636 23.032 71.7956 23C71.9556 23.2347 72.0783 23.4373 72.1636 23.608C72.249 23.7787 72.2916 23.9387 72.2916 24.088C72.2916 24.2267 72.233 24.3653 72.1156 24.504C72.009 24.632 71.8543 24.7547 71.6516 24.872C71.449 24.9787 71.2036 25.064 70.9156 25.128C70.6276 25.2027 70.313 25.24 69.9716 25.24C69.3103 25.24 68.793 25.112 68.4196 24.856C68.057 24.6 67.801 24.264 67.6516 23.848ZM78.8193 18.312C78.8193 18.472 78.7659 18.664 78.6593 18.888C78.5633 19.1013 78.4566 19.304 78.3393 19.496C78.2326 19.4107 78.0993 19.3253 77.9393 19.24C77.7899 19.144 77.6193 19.0587 77.4273 18.984C77.2353 18.8987 77.0326 18.8293 76.8193 18.776C76.6166 18.7227 76.4086 18.696 76.1953 18.696C76.0779 18.696 75.9553 18.7067 75.8273 18.728C75.6993 18.7387 75.5819 18.7707 75.4753 18.824C75.3793 18.8667 75.2939 18.936 75.2193 19.032C75.1553 19.1173 75.1233 19.2347 75.1233 19.384C75.1233 19.7467 75.5126 20.0133 76.2913 20.184C76.6113 20.248 76.9259 20.3333 77.2352 20.44C77.5553 20.536 77.8379 20.6747 78.0833 20.856C78.3393 21.0373 78.5419 21.2667 78.6913 21.544C78.8513 21.8213 78.9313 22.168 78.9313 22.584C78.9313 23.0107 78.8459 23.3893 78.6753 23.72C78.5153 24.0507 78.2913 24.328 78.0033 24.552C77.7153 24.776 77.3739 24.9467 76.9793 25.064C76.5953 25.1813 76.1739 25.24 75.7153 25.24C75.2459 25.24 74.8459 25.2027 74.5153 25.128C74.1953 25.064 73.9286 24.984 73.7153 24.888C73.5659 24.824 73.4006 24.7333 73.2193 24.616C73.0486 24.488 72.9633 24.3173 72.9633 24.104C72.9633 23.9227 73.0166 23.736 73.1233 23.544C73.2299 23.3413 73.3526 23.1333 73.4913 22.92C73.5873 23.0053 73.7046 23.096 73.8433 23.192C73.9926 23.2773 74.1579 23.3627 74.3393 23.448C74.5313 23.5227 74.7339 23.5867 74.9473 23.64C75.1606 23.6933 75.3793 23.72 75.6033 23.72C75.7419 23.72 75.8859 23.7093 76.0353 23.688C76.1846 23.6667 76.3126 23.624 76.4193 23.56C76.5366 23.496 76.6326 23.4107 76.7073 23.304C76.7819 23.1973 76.8193 23.0587 76.8193 22.888C76.8193 22.5787 76.6966 22.36 76.4513 22.232C76.2166 22.0933 75.8593 21.976 75.3793 21.88C75.0699 21.816 74.7713 21.7307 74.4833 21.624C74.1953 21.5173 73.9393 21.3787 73.7153 21.208C73.4913 21.0267 73.3099 20.8027 73.1713 20.536C73.0433 20.2693 72.9793 19.944 72.9793 19.56C72.9793 19.176 73.0646 18.84 73.2353 18.552C73.4059 18.264 73.6299 18.0187 73.9073 17.816C74.1953 17.6133 74.5259 17.464 74.8993 17.368C75.2726 17.2613 75.6619 17.208 76.0673 17.208C76.4939 17.208 76.8726 17.24 77.2033 17.304C77.5446 17.368 77.8379 17.4533 78.0833 17.56C78.5526 17.752 78.7979 18.0027 78.8193 18.312ZM86.6543 23.144C86.6543 23.9867 86.7769 24.6 87.0223 24.984C86.8303 25.0587 86.6489 25.112 86.4783 25.144C86.3183 25.176 86.1476 25.192 85.9663 25.192C85.5823 25.192 85.2889 25.1173 85.0863 24.968C84.8943 24.8187 84.7716 24.6053 84.7183 24.328C84.4836 24.5733 84.1743 24.7813 83.7903 24.952C83.4063 25.1227 82.9369 25.208 82.3823 25.208C82.0943 25.208 81.8063 25.1653 81.5182 25.08C81.2303 25.0053 80.9689 24.8773 80.7343 24.696C80.4996 24.5147 80.3076 24.2747 80.1583 23.976C80.0089 23.6667 79.9342 23.2933 79.9342 22.856C79.9342 22.312 80.0623 21.8693 80.3183 21.528C80.5849 21.1867 80.9156 20.92 81.3103 20.728C81.7049 20.5253 82.1316 20.3867 82.5903 20.312C83.0489 20.2373 83.4703 20.1893 83.8543 20.168C83.9823 20.1573 84.1049 20.152 84.2223 20.152C84.3503 20.152 84.4676 20.152 84.5743 20.152V19.864C84.5743 19.4587 84.4623 19.1707 84.2383 19C84.0249 18.8293 83.6729 18.744 83.1823 18.744C82.7236 18.744 82.3129 18.8187 81.9503 18.968C81.5983 19.1173 81.2516 19.288 80.9103 19.48C80.7609 19.2987 80.6383 19.1013 80.5423 18.888C80.4569 18.664 80.4143 18.4987 80.4143 18.392C80.4143 18.2427 80.4943 18.0987 80.6543 17.96C80.8249 17.8213 81.0543 17.6987 81.3423 17.592C81.6303 17.4747 81.9609 17.384 82.3343 17.32C82.7076 17.2453 83.1023 17.208 83.5182 17.208C84.0943 17.208 84.5796 17.2667 84.9743 17.384C85.3796 17.5013 85.7049 17.6827 85.9503 17.928C86.2063 18.1733 86.3876 18.4827 86.4943 18.856C86.6009 19.2187 86.6543 19.6453 86.6543 20.136V23.144ZM84.6063 21.288C84.5316 21.288 84.4569 21.288 84.3823 21.288C84.3076 21.288 84.2329 21.2933 84.1583 21.304C83.8916 21.3253 83.6249 21.3573 83.3583 21.4C83.1023 21.4427 82.8729 21.5173 82.6703 21.624C82.4676 21.7307 82.3023 21.8693 82.1743 22.04C82.0463 22.2107 81.9823 22.4293 81.9823 22.696C81.9823 22.9947 82.0676 23.2507 82.2383 23.464C82.4089 23.6667 82.6969 23.768 83.1023 23.768C83.3049 23.768 83.4969 23.7413 83.6783 23.688C83.8596 23.6347 84.0196 23.5653 84.1583 23.48C84.2969 23.3947 84.4036 23.304 84.4783 23.208C84.5636 23.1013 84.6063 23.0053 84.6063 22.92V21.288ZM94.5754 18.632H98.6074V14.296C98.6927 14.2853 98.7834 14.2747 98.8794 14.264C98.9647 14.2533 99.05 14.2427 99.1354 14.232C99.2314 14.2213 99.322 14.216 99.4074 14.216C99.546 14.216 99.6954 14.232 99.8554 14.264C100.026 14.296 100.181 14.36 100.319 14.456C100.458 14.5413 100.57 14.664 100.655 14.824C100.751 14.984 100.799 15.1973 100.799 15.464V25H98.6074V20.36H94.5754V25H92.3834V14.296C92.4794 14.2853 92.5754 14.2747 92.6714 14.264C92.7567 14.2533 92.8367 14.2427 92.9114 14.232C92.9967 14.2213 93.0767 14.216 93.1514 14.216C93.3114 14.216 93.4714 14.232 93.6314 14.264C93.802 14.296 93.9567 14.36 94.0954 14.456C94.234 14.5413 94.346 14.664 94.4314 14.824C94.5274 14.984 94.5754 15.1973 94.5754 15.464V18.632ZM106.788 23.64C107.055 23.64 107.289 23.6133 107.492 23.56C107.695 23.496 107.876 23.4213 108.036 23.336C108.196 23.2507 108.335 23.16 108.452 23.064C108.569 22.9573 108.676 22.8613 108.772 22.776C108.9 22.936 109.033 23.144 109.172 23.4C109.311 23.6453 109.38 23.848 109.38 24.008C109.38 24.2427 109.247 24.456 108.98 24.648C108.756 24.8187 108.436 24.9627 108.02 25.08C107.615 25.208 107.135 25.272 106.58 25.272C106.079 25.272 105.583 25.208 105.092 25.08C104.612 24.952 104.18 24.728 103.796 24.408C103.423 24.088 103.119 23.6613 102.884 23.128C102.649 22.584 102.532 21.9013 102.532 21.08C102.532 20.408 102.633 19.832 102.836 19.352C103.049 18.8613 103.327 18.456 103.668 18.136C104.02 17.816 104.415 17.5813 104.852 17.432C105.289 17.2827 105.737 17.208 106.196 17.208C106.793 17.208 107.3 17.304 107.716 17.496C108.132 17.6773 108.468 17.928 108.724 18.248C108.991 18.5573 109.183 18.9147 109.3 19.32C109.417 19.7253 109.476 20.152 109.476 20.6C109.476 20.664 109.476 20.7387 109.476 20.824C109.476 20.9093 109.471 21 109.46 21.096C109.46 21.192 109.455 21.288 109.444 21.384C109.444 21.4693 109.439 21.5387 109.428 21.592H104.724C104.767 22.1787 104.948 22.6693 105.268 23.064C105.588 23.448 106.095 23.64 106.788 23.64ZM107.508 20.392C107.508 19.88 107.407 19.464 107.204 19.144C107.012 18.824 106.66 18.664 106.148 18.664C105.711 18.664 105.359 18.8187 105.092 19.128C104.836 19.4267 104.708 19.848 104.708 20.392H107.508ZM113.247 25.096C113.194 25.1173 113.092 25.1333 112.943 25.144C112.794 25.1547 112.628 25.16 112.447 25.16C112.266 25.16 112.09 25.1387 111.919 25.096C111.759 25.064 111.615 25 111.487 24.904C111.359 24.7973 111.258 24.6587 111.183 24.488C111.108 24.3173 111.071 24.0987 111.071 23.832V13.72C111.071 13.7093 111.151 13.6987 111.311 13.688C111.471 13.6667 111.636 13.656 111.807 13.656C111.978 13.656 112.148 13.672 112.319 13.704C112.49 13.736 112.644 13.8 112.783 13.896C112.922 13.9813 113.034 14.1093 113.119 14.28C113.204 14.44 113.247 14.6533 113.247 14.92V25.096ZM117.37 18.136C117.54 17.9333 117.807 17.7307 118.17 17.528C118.532 17.3147 118.991 17.208 119.546 17.208C119.94 17.208 120.314 17.2773 120.666 17.416C121.028 17.544 121.348 17.7573 121.626 18.056C121.903 18.3547 122.122 18.7493 122.282 19.24C122.452 19.7307 122.538 20.3333 122.538 21.048C122.538 21.88 122.442 22.568 122.25 23.112C122.058 23.6453 121.807 24.072 121.498 24.392C121.199 24.7013 120.863 24.92 120.49 25.048C120.116 25.176 119.743 25.24 119.37 25.24C119.06 25.24 118.788 25.2027 118.554 25.128C118.33 25.064 118.138 24.9893 117.978 24.904C117.818 24.8187 117.695 24.7333 117.61 24.648C117.524 24.5627 117.471 24.504 117.45 24.472V28.488H115.29V17.432C115.343 17.4213 115.407 17.4107 115.482 17.4C115.546 17.3893 115.62 17.384 115.706 17.384C115.791 17.3733 115.892 17.368 116.01 17.368C116.362 17.368 116.66 17.4267 116.906 17.544C117.151 17.6613 117.306 17.8587 117.37 18.136ZM120.266 21.096C120.266 20.776 120.239 20.4773 120.186 20.2C120.132 19.9227 120.042 19.6827 119.914 19.48C119.796 19.2773 119.631 19.1227 119.418 19.016C119.215 18.8987 118.964 18.84 118.666 18.84C118.218 18.84 117.903 18.9253 117.722 19.096C117.551 19.2667 117.466 19.4533 117.466 19.656V23.048C117.551 23.1333 117.7 23.2347 117.914 23.352C118.138 23.4693 118.394 23.528 118.682 23.528C119.226 23.528 119.626 23.3147 119.882 22.888C120.138 22.4613 120.266 21.864 120.266 21.096ZM126.434 25.096C126.392 25.1173 126.296 25.1333 126.146 25.144C125.997 25.1547 125.837 25.16 125.666 25.16C125.453 25.16 125.261 25.1387 125.09 25.096C124.92 25.064 124.77 25 124.642 24.904C124.525 24.7973 124.429 24.6587 124.354 24.488C124.29 24.3173 124.258 24.0987 124.258 23.832V17.432C124.258 17.4213 124.338 17.4107 124.498 17.4C124.658 17.3787 124.824 17.368 124.994 17.368C125.165 17.368 125.336 17.384 125.506 17.416C125.677 17.448 125.832 17.512 125.97 17.608C126.109 17.6933 126.221 17.8213 126.306 17.992C126.392 18.152 126.434 18.3653 126.434 18.632V25.096ZM126.45 14.872C126.45 15.2133 126.333 15.4907 126.098 15.704C125.874 15.9173 125.602 16.024 125.282 16.024C124.952 16.024 124.674 15.9173 124.45 15.704C124.226 15.4907 124.114 15.2133 124.114 14.872C124.114 14.5307 124.226 14.2533 124.45 14.04C124.674 13.816 124.952 13.704 125.282 13.704C125.602 13.704 125.874 13.816 126.098 14.04C126.333 14.2533 126.45 14.5307 126.45 14.872ZM130.669 25H128.477V17.432C128.53 17.4213 128.594 17.4107 128.669 17.4C128.733 17.3893 128.808 17.384 128.893 17.384C128.978 17.3733 129.08 17.368 129.197 17.368C129.538 17.368 129.832 17.432 130.077 17.56C130.333 17.6773 130.493 17.8907 130.557 18.2C130.738 17.9547 131.016 17.7307 131.389 17.528C131.773 17.3147 132.28 17.208 132.909 17.208C133.666 17.208 134.226 17.3573 134.589 17.656C134.952 17.9547 135.186 18.3493 135.293 18.84C135.346 19.0853 135.378 19.352 135.389 19.64C135.41 19.928 135.421 20.2107 135.421 20.488V25H133.245V20.584C133.245 20.3493 133.234 20.1307 133.213 19.928C133.202 19.7253 133.16 19.5547 133.085 19.416C133.021 19.2667 132.909 19.1547 132.749 19.08C132.6 18.9947 132.386 18.952 132.109 18.952C131.714 18.952 131.373 19.0373 131.085 19.208C130.808 19.368 130.669 19.5707 130.669 19.816V25ZM144.262 24.408C144.262 25.0373 144.198 25.608 144.07 26.12C143.952 26.6427 143.739 27.0907 143.43 27.464C143.131 27.8373 142.731 28.1253 142.23 28.328C141.728 28.5307 141.099 28.632 140.342 28.632C139.702 28.632 139.174 28.584 138.758 28.488C138.352 28.392 138.027 28.2747 137.782 28.136C137.568 28.0187 137.43 27.896 137.366 27.768C137.312 27.64 137.286 27.5173 137.286 27.4C137.286 27.2293 137.355 27.0267 137.493 26.792C137.632 26.568 137.771 26.3653 137.91 26.184C137.984 26.2587 138.086 26.344 138.214 26.44C138.352 26.536 138.518 26.6267 138.71 26.712C138.902 26.808 139.115 26.888 139.35 26.952C139.595 27.016 139.862 27.048 140.15 27.048C140.566 27.048 140.902 26.9893 141.158 26.872C141.424 26.7653 141.632 26.6053 141.782 26.392C141.931 26.1893 142.032 25.9387 142.086 25.64C142.15 25.3413 142.182 25 142.182 24.616V24.328C142.032 24.5093 141.792 24.68 141.462 24.84C141.131 24.9893 140.715 25.064 140.214 25.064C139.819 25.064 139.435 25.0053 139.062 24.888C138.699 24.76 138.374 24.5467 138.086 24.248C137.798 23.9493 137.568 23.56 137.398 23.08C137.227 22.5893 137.142 21.9813 137.142 21.256C137.142 20.52 137.227 19.896 137.398 19.384C137.579 18.872 137.814 18.456 138.102 18.136C138.4 17.8053 138.736 17.5707 139.11 17.432C139.494 17.2827 139.894 17.208 140.31 17.208C140.779 17.208 141.168 17.288 141.478 17.448C141.787 17.608 142.027 17.8107 142.198 18.056C142.283 17.8107 142.443 17.6347 142.678 17.528C142.912 17.4213 143.184 17.368 143.494 17.368C143.579 17.368 143.67 17.3733 143.766 17.384C143.862 17.384 143.947 17.3893 144.022 17.4C144.107 17.4107 144.187 17.4213 144.262 17.432V24.408ZM139.382 21.128C139.382 21.8747 139.494 22.4667 139.718 22.904C139.942 23.3307 140.363 23.544 140.982 23.544C141.355 23.544 141.648 23.4747 141.862 23.336C142.075 23.1867 142.182 22.9947 142.182 22.76V19.336C142.096 19.2507 141.947 19.1493 141.734 19.032C141.531 18.9147 141.291 18.856 141.014 18.856C139.926 18.856 139.382 19.6133 139.382 21.128ZM152.185 18.632H156.217V14.296C156.302 14.2853 156.393 14.2747 156.489 14.264C156.574 14.2533 156.659 14.2427 156.745 14.232C156.841 14.2213 156.931 14.216 157.017 14.216C157.155 14.216 157.305 14.232 157.465 14.264C157.635 14.296 157.79 14.36 157.929 14.456C158.067 14.5413 158.179 14.664 158.265 14.824C158.361 14.984 158.409 15.1973 158.409 15.464V25H156.217V20.36H152.185V25H149.993V14.296C150.089 14.2853 150.185 14.2747 150.281 14.264C150.366 14.2533 150.446 14.2427 150.521 14.232C150.606 14.2213 150.686 14.216 150.761 14.216C150.921 14.216 151.081 14.232 151.241 14.264C151.411 14.296 151.566 14.36 151.705 14.456C151.843 14.5413 151.955 14.664 152.041 14.824C152.137 14.984 152.185 15.1973 152.185 15.464V18.632ZM166.686 23.144C166.686 23.9867 166.808 24.6 167.054 24.984C166.862 25.0587 166.68 25.112 166.51 25.144C166.35 25.176 166.179 25.192 165.998 25.192C165.614 25.192 165.32 25.1173 165.118 24.968C164.926 24.8187 164.803 24.6053 164.75 24.328C164.515 24.5733 164.206 24.7813 163.822 24.952C163.438 25.1227 162.968 25.208 162.414 25.208C162.126 25.208 161.838 25.1653 161.549 25.08C161.262 25.0053 161 24.8773 160.766 24.696C160.531 24.5147 160.339 24.2747 160.19 23.976C160.04 23.6667 159.965 23.2933 159.965 22.856C159.965 22.312 160.094 21.8693 160.35 21.528C160.616 21.1867 160.947 20.92 161.342 20.728C161.736 20.5253 162.163 20.3867 162.622 20.312C163.08 20.2373 163.502 20.1893 163.886 20.168C164.014 20.1573 164.136 20.152 164.254 20.152C164.382 20.152 164.499 20.152 164.606 20.152V19.864C164.606 19.4587 164.494 19.1707 164.27 19C164.056 18.8293 163.704 18.744 163.214 18.744C162.755 18.744 162.344 18.8187 161.982 18.968C161.63 19.1173 161.283 19.288 160.942 19.48C160.792 19.2987 160.67 19.1013 160.574 18.888C160.488 18.664 160.446 18.4987 160.446 18.392C160.446 18.2427 160.526 18.0987 160.686 17.96C160.856 17.8213 161.086 17.6987 161.374 17.592C161.662 17.4747 161.992 17.384 162.366 17.32C162.739 17.2453 163.134 17.208 163.549 17.208C164.126 17.208 164.611 17.2667 165.006 17.384C165.411 17.5013 165.736 17.6827 165.982 17.928C166.238 18.1733 166.419 18.4827 166.526 18.856C166.632 19.2187 166.686 19.6453 166.686 20.136V23.144ZM164.638 21.288C164.563 21.288 164.488 21.288 164.414 21.288C164.339 21.288 164.264 21.2933 164.19 21.304C163.923 21.3253 163.656 21.3573 163.39 21.4C163.134 21.4427 162.904 21.5173 162.702 21.624C162.499 21.7307 162.334 21.8693 162.206 22.04C162.078 22.2107 162.014 22.4293 162.014 22.696C162.014 22.9947 162.099 23.2507 162.27 23.464C162.44 23.6667 162.728 23.768 163.134 23.768C163.336 23.768 163.528 23.7413 163.71 23.688C163.891 23.6347 164.051 23.5653 164.19 23.48C164.328 23.3947 164.435 23.304 164.51 23.208C164.595 23.1013 164.638 23.0053 164.638 22.92V21.288ZM170.919 25H168.727V17.432C168.78 17.4213 168.844 17.4107 168.919 17.4C168.983 17.3893 169.058 17.384 169.143 17.384C169.228 17.3733 169.33 17.368 169.447 17.368C169.788 17.368 170.082 17.432 170.327 17.56C170.583 17.6773 170.743 17.8907 170.807 18.2C170.988 17.9547 171.266 17.7307 171.639 17.528C172.023 17.3147 172.53 17.208 173.159 17.208C173.916 17.208 174.476 17.3573 174.839 17.656C175.202 17.9547 175.436 18.3493 175.543 18.84C175.596 19.0853 175.628 19.352 175.639 19.64C175.66 19.928 175.671 20.2107 175.671 20.488V25H173.495V20.584C173.495 20.3493 173.484 20.1307 173.463 19.928C173.452 19.7253 173.41 19.5547 173.335 19.416C173.271 19.2667 173.159 19.1547 172.999 19.08C172.85 18.9947 172.636 18.952 172.359 18.952C171.964 18.952 171.623 19.0373 171.335 19.208C171.058 19.368 170.919 19.5707 170.919 19.816V25ZM183.184 25C183.002 25 182.858 24.9413 182.752 24.824C182.645 24.696 182.592 24.536 182.592 24.344C182.442 24.5253 182.186 24.712 181.824 24.904C181.472 25.096 181.018 25.192 180.464 25.192C180.069 25.192 179.685 25.128 179.312 25C178.949 24.872 178.624 24.6587 178.336 24.36C178.048 24.0613 177.818 23.6667 177.648 23.176C177.477 22.6747 177.392 22.056 177.392 21.32C177.392 20.584 177.477 19.9547 177.648 19.432C177.829 18.9093 178.064 18.488 178.352 18.168C178.65 17.8373 178.986 17.5973 179.36 17.448C179.744 17.288 180.144 17.208 180.56 17.208C181.04 17.208 181.434 17.2933 181.744 17.464C182.053 17.624 182.282 17.784 182.432 17.944V13.72C182.432 13.7093 182.512 13.6987 182.672 13.688C182.832 13.6667 182.997 13.656 183.168 13.656C183.338 13.656 183.509 13.672 183.68 13.704C183.861 13.736 184.016 13.8 184.144 13.896C184.282 13.992 184.394 14.1253 184.48 14.296C184.565 14.456 184.608 14.6693 184.608 14.936V25H183.184ZM179.632 21.208C179.632 21.5813 179.658 21.9227 179.712 22.232C179.765 22.5307 179.856 22.7867 179.984 23C180.112 23.2133 180.282 23.3787 180.496 23.496C180.709 23.6133 180.981 23.672 181.312 23.672C181.621 23.672 181.882 23.608 182.096 23.48C182.32 23.352 182.432 23.1707 182.432 22.936V19.336C182.346 19.2507 182.197 19.1493 181.984 19.032C181.781 18.9147 181.541 18.856 181.264 18.856C180.709 18.856 180.298 19.0587 180.032 19.464C179.765 19.8693 179.632 20.4507 179.632 21.208ZM191.913 18.312C191.913 18.472 191.86 18.664 191.753 18.888C191.657 19.1013 191.55 19.304 191.433 19.496C191.326 19.4107 191.193 19.3253 191.033 19.24C190.884 19.144 190.713 19.0587 190.521 18.984C190.329 18.8987 190.126 18.8293 189.913 18.776C189.71 18.7227 189.502 18.696 189.289 18.696C189.172 18.696 189.049 18.7067 188.921 18.728C188.793 18.7387 188.676 18.7707 188.569 18.824C188.473 18.8667 188.388 18.936 188.313 19.032C188.249 19.1173 188.217 19.2347 188.217 19.384C188.217 19.7467 188.606 20.0133 189.385 20.184C189.705 20.248 190.02 20.3333 190.329 20.44C190.649 20.536 190.932 20.6747 191.177 20.856C191.433 21.0373 191.636 21.2667 191.785 21.544C191.945 21.8213 192.025 22.168 192.025 22.584C192.025 23.0107 191.94 23.3893 191.769 23.72C191.609 24.0507 191.385 24.328 191.097 24.552C190.809 24.776 190.468 24.9467 190.073 25.064C189.689 25.1813 189.268 25.24 188.809 25.24C188.34 25.24 187.94 25.2027 187.609 25.128C187.289 25.064 187.022 24.984 186.809 24.888C186.66 24.824 186.494 24.7333 186.313 24.616C186.142 24.488 186.057 24.3173 186.057 24.104C186.057 23.9227 186.11 23.736 186.217 23.544C186.324 23.3413 186.446 23.1333 186.585 22.92C186.681 23.0053 186.798 23.096 186.937 23.192C187.086 23.2773 187.252 23.3627 187.433 23.448C187.625 23.5227 187.828 23.5867 188.041 23.64C188.254 23.6933 188.473 23.72 188.697 23.72C188.836 23.72 188.98 23.7093 189.129 23.688C189.278 23.6667 189.406 23.624 189.513 23.56C189.63 23.496 189.726 23.4107 189.801 23.304C189.876 23.1973 189.913 23.0587 189.913 22.888C189.913 22.5787 189.79 22.36 189.545 22.232C189.31 22.0933 188.953 21.976 188.473 21.88C188.164 21.816 187.865 21.7307 187.577 21.624C187.289 21.5173 187.033 21.3787 186.809 21.208C186.585 21.0267 186.404 20.8027 186.265 20.536C186.137 20.2693 186.073 19.944 186.073 19.56C186.073 19.176 186.158 18.84 186.329 18.552C186.5 18.264 186.724 18.0187 187.001 17.816C187.289 17.6133 187.62 17.464 187.993 17.368C188.366 17.2613 188.756 17.208 189.161 17.208C189.588 17.208 189.966 17.24 190.297 17.304C190.638 17.368 190.932 17.4533 191.177 17.56C191.646 17.752 191.892 18.0027 191.913 18.312Z" fill="#7FB069"/>
</svg>
